<svg version="1.2" xmlns="http://www.w3.org/2000/svg" viewBox="0 0 1572 644" width="1572" height="644">
	<title>vmware-logo-grey-svg</title>
	<style>
		.s0 { fill: #ffffff } 
	</style>
	<g id="Layer">
		<path id="Layer" class="s0" d="m312.4 423.1l123.5-289.4c42.2-93.4 111.5-132.6 195.8-132.6 51.3 0 120.6 30.1 159.7 81.4 0 0 87.4-81.4 183.8-81.4 93.4 0 144.7 30.1 186.8 81.4 0 0 72.3-81.4 192.9-81.4 120.5 0 216.9 84.4 216.9 208v331.6c0 57.3-30.1 102.5-90.4 102.5-57.2 0-87.4-48.3-87.4-102.5v-292.4c0-54.3-36.1-93.5-90.4-93.5-51.2 0-93.4 36.2-93.4 93.5v292.4c0 57.3-30.1 102.5-90.3 102.5-57.3 0-87.4-48.3-87.4-102.5v-292.4c0-54.3-36.2-93.5-90.4-93.5-51.2 0-93.4 36.2-93.4 93.5v289.4c0 57.2-30.2 102.5-90.4 102.5-57.3 0-87.4-48.3-87.4-102.5v-355.7c0-15.1-9-27.2-24.1-27.2-18.1 0-21.1 12.1-24.1 15.1-3 3-171.7 370.8-171.7 370.8-33.2 63.3-60.3 102.5-123.6 102.5-60.2 0-93.4-36.2-123.5-102.5l-192.8-419c-24.2-42.2-6.1-96.5 39.1-114.6 45.2-18.1 96.4 0 114.5 45.2z"/>
	</g>
</svg>