<?xml version="1.0" encoding="utf-8"?>
<!-- Generator: Adobe Illustrator 14.0.0, SVG Export Plug-In . SVG Version: 6.00 Build 43363)  -->
<!DOCTYPE svg PUBLIC "-//W3C//DTD SVG 1.1//EN" "http://www.w3.org/Graphics/SVG/1.1/DTD/svg11.dtd">
<svg version="1.1" id="Layer_1" xmlns="http://www.w3.org/2000/svg" xmlns:xlink="http://www.w3.org/1999/xlink" x="0px" y="0px"
	 width="495px" height="492px" viewBox="0 0 495 492" enable-background="new 0 0 495 492" xml:space="preserve">
<g>
	<path fill="#ED1C24" d="M248.246,467.938c52.715,0,59.409-71.126,59.409-71.126s10.88-6.694,15.063-9.208
		c4.178-2.506,12.002-1.832,23.428-5.016c11.424-3.186,24.269-4.186,35.147-31.801c10.879-27.607-40.159-81.168-43.519-97.063
		c-3.344-15.907,17.302-20.212,17.302-20.212l2.79-16.608l-29.296-42.681c0,0-6.052-17.813-15.898-28.449
		c-9.84-10.636-61.084-28.449-61.084-28.449h-1.829c0,0-51.239,17.813-61.088,28.449c-9.835,10.636-15.895,28.449-15.895,28.449
		l-29.291,42.681l2.79,16.608c0,0,20.645,4.305,17.302,20.212c-3.352,15.895-54.397,69.454-43.519,97.063
		c10.879,27.615,23.724,28.615,35.147,31.801c11.416,3.184,19.241,2.51,23.426,5.016c4.187,2.514,15.062,9.208,15.062,9.208
		s6.689,71.126,59.413,71.126H248.246L248.246,467.938z"/>
	<g>
		<g>
			<path fill="#FFCB05" stroke="#995B05" stroke-width="2" stroke-linecap="round" stroke-linejoin="round" d="M308.654,127.938
				l3.549-9.526c5.771-15.481,20.703-23.026,26.919-47.241c6.224-24.215-37.286-36.919-63.47-39.296
				c-26.196-2.386-27.084-10.327-27.084-10.327h-0.285c0,0-0.883,7.941-27.07,10.327c-26.191,2.377-69.693,15.081-63.479,39.296
				c6.207,24.215,23.08,31.76,28.85,47.241l3.55,9.526H308.654z"/>
			<path fill="#E6B00F" d="M193.378,115.651c0,0-6.216-8.342-13.982-17.6c-7.769-9.262-8.809-17.599-3.112-25.474
				c5.704-7.879,20.942-13.769,29.011-11.585c17.093,4.635,48.684,13.385,77.169,1.857c19.094-7.727,33.671,3.239,39.878,9.266
				c6.226,6.018-9.318,39.362-21.751,46.316C288.157,125.379,206.85,128.157,193.378,115.651z"/>
			<g>
				<path fill="#FFDD00" stroke="#995B05" stroke-width="2" stroke-linecap="round" stroke-linejoin="round" d="M248.726,68.789
					c30.187,0,62.595,34.934,63.485,50.416H186.584C186.584,119.205,200.345,68.789,248.726,68.789z"/>
				<path fill="#FFDD00" stroke="#995B05" stroke-width="2" stroke-linecap="round" stroke-linejoin="round" d="M206.94,112.997
					c0,0,6.769-44.208,41.785-44.208c35.023,0,45.021,42.578,45.021,42.578L206.94,112.997z"/>
				<path fill="#FFDD00" stroke="#995B05" stroke-width="2" stroke-linecap="round" stroke-linejoin="round" d="M233.074,107.504
					c0,0-0.503-38.715,15.651-38.715c16.162,0,18.895,38.715,18.895,38.715H233.074z"/>
				<path fill="#FFCB05" stroke="#995B05" stroke-width="2" stroke-linecap="round" stroke-linejoin="round" d="M195.904,145.405
					c0,0,15.543-13.101,57.262-13.101c41.735,0,54.159,13.501,54.159,13.501l4.887-26.601c0,0-10.211-15.086-59.929-15.086
					s-65.699,14.293-65.699,14.293L195.904,145.405z"/>
				<g>
					<path fill="#FFCB05" stroke="#995B05" stroke-width="2" stroke-linecap="round" stroke-linejoin="round" d="M251.028,70.515
						c0,0,4.317-7.929,9.542-7.115c5.229,0.817,7.5,5.287,6.818,7.727c-0.686,2.435-7.272,4.268-7.949,2.232
						c-0.686-2.035,1.131-3.859,1.131-3.859s-0.686-1.832-2.724-0.404c-2.048,1.42-2.501,4.47-3.871,5.283
						c-1.362,0.813-4.499,1.849-4.769,0.408C248.754,72.343,249.208,72.137,251.028,70.515z"/>
					<path fill="#FFCB05" stroke="#995B05" stroke-width="2" stroke-linecap="round" stroke-linejoin="round" d="M245.758,70.515
						c0,0-4.32-7.929-9.547-7.115c-5.225,0.817-7.499,5.287-6.813,7.727c0.681,2.435,7.268,4.268,7.953,2.232
						c0.677-2.035-1.141-3.859-1.141-3.859s0.687-1.832,2.732-0.404c2.043,1.42,2.493,4.47,3.863,5.283
						c1.356,0.813,4.499,1.849,4.771,0.408C248.027,72.343,247.569,72.137,245.758,70.515z"/>
					<path fill="#FFCB05" stroke="#995B05" stroke-width="2" stroke-linecap="round" stroke-linejoin="round" d="M248.981,48.772
						c0,0,4.09,4.061,5.679,6.702c1.594,2.649,2.959,6.505,2.959,6.505s-5.683,2.642-5.906,4.672
						c-0.229,2.031,0.446,7.318-2.505,7.318s-3.178-2.438-3.636-7.112c-0.454-4.672-6.814-5.484-6.814-5.484s0.45-4.07,3.863-7.12
						C246.03,51.207,248.981,48.772,248.981,48.772z"/>
					<path fill="#FFCB05" stroke="#995B05" stroke-width="2" stroke-linecap="round" stroke-linejoin="round" d="M248.296,65.636
						c0,0-0.223-2.641-2.039-3.862c-1.823-1.222-2.27-2.229-2.27-2.229l4.767-4.275l4.092,5.283c0,0-2.497,1.222-2.951,1.832
						C249.436,62.995,248.296,65.636,248.296,65.636z"/>
					<path fill="#FFCB05" stroke="#995B05" stroke-width="2" stroke-linecap="round" stroke-linejoin="round" d="M241.939,64.01
						c0,0-4.548,2.035-5.002-0.404s2.959-5.894,7.05-4.062c4.086,1.829,4.544,4.673,4.544,4.673s1.816-3.863,4.998-4.269
						c3.178-0.404,6.133-0.004,6.133,2.436c0,2.44-2.728,3.459-4.771,0.813c0,0-2.732,0.61-3.18,3.454
						c-0.453,2.848,1.816,7.727-3.182,7.727c-5.007,0-2.501-5.085-2.959-7.521C245.118,64.414,241.939,64.01,241.939,64.01z"/>
				</g>
			</g>
			<path fill="#FFF799" d="M247.768,31.351c0,0-26.423,6.484-41.958,8.804c-15.535,2.32-41.432,13.426-42.472,22.229
				c-1.04,8.808,1.549,18.065,6.736,24.079c5.176,6.025,15.535,19.922,15.535,19.922s-9.844-16.208-15.023-26.864
				c-5.176-10.657,0-25.478,20.199-32.42C210.985,40.154,247.768,31.351,247.768,31.351z"/>
			<path fill="#E6B00F" d="M264.854,37.372c1.552,0,54.9,7.409,58.524,26.865c3.624,19.452-6.216,32.886-6.216,32.886
				s6.736-29.642-12.942-41.228C284.534,44.322,264.854,37.372,264.854,37.372z"/>
			<path fill="#FFF799" d="M197.158,106.653c0,0,5.151-13.81,12.357-19.79c7.206-5.989,9.781-6.913,9.781-6.913
				s-13.39,18.416-13.9,20.257C204.877,102.048,197.158,106.653,197.158,106.653z"/>
			<path fill="#FFF799" d="M215.694,98.366c0,0,6.689-10.591,10.294-14.73c3.603-4.14,8.242-6.905,8.242-6.905
				s-9.271,14.264-10.298,16.571c-1.036,2.307-2.068,9.208-6.184,7.829C213.635,99.748,215.694,98.366,215.694,98.366z"/>
			<path fill="#FFF799" d="M237.825,96.987c-0.463-2.266,3.604-16.575,7.21-17.491c3.6-0.925,8.75,0.454,8.75,0.454
				s-6.694,3.228-7.727,6.446c-1.023,3.22,1.548,9.212-1.543,10.133C241.433,97.445,238.853,102.048,237.825,96.987z"/>
			<path fill="#FFF799" d="M269.741,79.496c0,0,3.088,14.271,4.64,16.566c1.539,2.304,7.719,4.145,7.719,4.145
				s-10.294,4.144-12.869-5.064C266.654,85.938,265.622,79.496,269.741,79.496z"/>
			<path fill="#FFF799" d="M291.881,91.927c0,0,8.75,6.443,9.263,9.667c0.52,3.219-2.057,6.904-2.567,5.06
				C298.047,104.813,291.881,91.927,291.881,91.927z"/>
		</g>
		<path fill="#E6B00F" d="M255.057,106.918c0,0,30.385,1.494,40.34,4.478c9.964,2.992,12.951,7.975,12.456,10.463
			c-0.504,2.493-0.504,5.481-1.493,6.971c-0.999,1.494-3.987,0.999-3.987,2.984c0,1.993,3.987,6.48-1.494,5.481
			c-5.48-0.995-23.409-7.467-30.381-7.966c-6.972-0.5-16.431-0.991-16.431-0.991s11.948-1.502,18.424-1.502
			c6.472,0,13.447,0.504,13.447,0.504s-22.412-4.486-20.918-4.486s12.447-0.5,12.447-0.5l-14.438-3.982l22.411,1.494
			c0,0-13.95-2.992-19.926-5.98C259.543,110.904,255.057,106.918,255.057,106.918z"/>
	</g>
	<g>
		<g>
			<g>
				<g>
					<g>
						<path fill="#FFCB05" stroke="#995B05" stroke-width="2" stroke-linecap="round" stroke-linejoin="round" d="M366.205,387.488
							c0,0,1.924,10.215,8.948,12.126c7.017,1.911,8.938,2.341,8.081,2.341c-0.852,0-12.126,1.275-16.814-7.446
							C361.739,385.784,366.205,387.488,366.205,387.488z"/>
						<path fill="#FFCB05" stroke="#995B05" stroke-width="2" stroke-linecap="round" stroke-linejoin="round" d="M376.853,388.764
							c0,0,5.316,3.83,10.848,3.83c5.539,0,12.135-0.215,11.499-0.215c-0.646,0-12.351-1.061-14.9-2.55
							C381.749,388.339,375.566,386.428,376.853,388.764z"/>
						<path fill="#FFCB05" stroke="#995B05" stroke-width="2" stroke-linecap="round" stroke-linejoin="round" d="M395.575,381.743
							c0,0,5.108,0.64,11.062-0.431c5.959-1.061,8.089-2.976,8.089-2.976s-9.574,1.915-12.126,1.701
							c-2.559-0.215-7.659-0.646-6.81,1.063"/>
						<path fill="#FFCB05" stroke="#995B05" stroke-width="2" stroke-linecap="round" stroke-linejoin="round" d="M347.69,395.229
							c0-9.474,13.372-7.959,13.372-7.959s27.645,7.198,40.9-19.312c13.249-26.511-1.519-83.31-1.519-83.31l-20.826-51.122
							c0,0,3.399-11.367,12.877-20.075c9.468-8.705,25.746-26.126,25.746-50.741c0-24.611-19.315-57.563-19.315-57.563
							s41.661,18.936,43.551,63.993c1.899,45.063-24.234,71.576-24.234,71.576s21.206-20.071,29.544-35.594
							c8.328-15.527,9.088-34.463,9.088-34.463s17.797,30.678,6.059,58.318c-11.736,27.646-29.543,36.729-29.543,36.729
							s10.607,4.544,26.515-6.814c15.897-11.357,20.827-30.669,20.827-30.669s6.569,45.589-23.485,64.375
							C438.36,304.4,431.5,306.234,431.5,306.234s18.186-1.521,32.185-7.959c14.018-6.435,18.938-11.737,18.938-11.737
							s-11.738,29.164-27.637,36.733c-15.906,7.572-24.995,9.848-24.995,9.848s15.146,0.756,28.775-3.033
							c13.638-3.785,19.688-7.949,19.688-7.949s-15.139,23.48-28.396,27.27c-13.257,3.785-21.205,3.404-21.205,3.404
							s22.346,10.225,37.871-2.648c0,0-7.197,14.388-20.825,19.313c-13.646,4.928-32.952,0-32.952,0s6.438,7.568,20.065,7.568
							c13.638,0,26.136-4.915,26.136-4.915s-14.39,20.45-29.156,20.826c-14.775,0.38-28.024-1.14-28.024-1.14
							s9.84,6.063,18.93,6.435c9.096,0.38,23.483-2.271,22.354-1.89c-1.146,0.379-17.426,14.012-32.192,11.361
							c-14.769-2.646-28.784-9.848-28.784-9.848s5.68,7.577,10.606,11.742c4.92,4.164,20.818,4.544,20.818,4.544
							s-19.688,8.704-32.557,3.028c-3.689-1.63-7.495-3.347-11.054-5.188c0,0-1.443,5.571,5.374,10.111
							c6.811,4.544,13.248,4.103,13.248,4.103s-27.265,1.197-35.223-11.676C345.535,401.657,347.69,395.229,347.69,395.229z"/>
						<path fill="#BA830D" d="M427.339,144.534c0,0,9.08,39.758-3.029,60.589c-12.126,20.83-26.514,29.535-26.514,29.535
							s1.52-8.329,10.229-18.177c8.708-9.844,15.525-20.447,18.177-31.05C428.849,174.828,427.339,144.534,427.339,144.534z"/>
						<path fill="#BA830D" d="M459.144,199.443c0,1.144-1.14,33.712-21.966,46.206c-20.835,12.494-31.806,12.494-31.806,12.494
							s6.811-7.199,7.949-7.199c1.14,0,15.146-1.891,27.266-14.768C452.705,223.304,459.144,199.443,459.144,199.443z"/>
						<path fill="#BA830D" d="M471.261,260.037c0,0-3.028,15.521-27.645,24.99c-24.615,9.469-28.024,6.817-28.024,6.817
							s4.169-4.544,6.438-4.544c2.277,0,9.848-0.38,25.755-8.713C463.683,270.261,471.261,260.037,471.261,260.037z"/>
						<path fill="#BA830D" d="M467.852,304.34c-2.27,1.898-17.417,14.393-29.534,15.151s-17.046-1.14-17.046-1.14
							s3.408-3.781,4.549-3.41c1.139,0.381,8.717,3.039,17.797,0C452.705,311.922,467.852,304.34,467.852,304.34z"/>
						<path fill="#BA830D" d="M458.385,336.916c0,0-14.388,7.189-24.615,7.57c-10.22,0.375-15.146-2.274-15.146-2.274l4.169-3.024
							c0,0,9.459,3.399,17.425,1.891C448.165,339.559,458.385,336.916,458.385,336.916z"/>
						<path fill="#BA830D" d="M416.137,358.229c0,0,7.513,4.912,17.004,4.912c9.485,0,15.7-0.33,15.7-0.33
							s-16.029,4.912-25.515,2.291C413.843,362.48,412.86,360.193,416.137,358.229z"/>
						<path fill="#BA830D" d="M402.599,380.039c0.976-1.131,10.913,5.992,21.71,4.688c10.798-1.305,16.354-2.291,16.354-2.291
							s-11.771,6.551-24.854,4.26C402.716,384.404,399.859,383.204,402.599,380.039z"/>
						<path fill="#BA830D" d="M391.927,392.912c0,0,13.735,6.863,17.986,7.522c4.251,0.652,8.511,0.652,8.511,0.652
							s-7.536,0.982-16.359-0.981C393.23,398.141,391.927,392.912,391.927,392.912z"/>
						<path fill="#BA830D" d="M370.984,399.449c0,0,10.797,9.489,15.709,11.123c4.902,1.635,7.85,2.291,7.85,2.291
							s-12.101,0.979-17.995-3.604C370.654,404.679,370.984,399.449,370.984,399.449z"/>
					</g>
					<path fill="#BA830D" d="M358.231,406.651c0,0,1.634,4.898,6.546,8.498c4.902,3.604,3.921,4.582,3.921,4.582
						S352.345,411.555,358.231,406.651z"/>
				</g>
				<g>
					<path fill="#FFCB05" stroke="#995B05" stroke-width="2" stroke-linecap="round" stroke-linejoin="round" d="M334.853,387.129
						c0,0,2.905,14.487,15.643,19.993c12.762,5.506,17.393,4.639,17.393,4.639s-6.661-5.794-9.559-9.565
						c-2.897-3.766-2.03-9.561-2.03-9.561s7.528,12.457,17.962,13.332c10.435,0.866,20.867-2.031,20.867-2.031
						s-10.714-2.318-13.042-4.928c-2.312-2.607-4.631-3.476-4.631-3.476s15.938,3.765,22.891,0.866
						c6.958-2.896,12.464-5.217,12.464-5.217s-17.095-1.742-19.702-3.183c-2.609-1.448-4.063-2.319-4.063-2.319
						s15.65,0.862,23.179-2.322c7.545-3.188,10.731-5.795,10.731-5.795s-14.495-2.895-15.651-3.184
						c-1.154-0.293-6.95-3.479-6.95-3.479s-7.824,8.398-13.917,10.723C380.353,383.943,334.853,387.129,334.853,387.129z"/>
					<g>
						<path fill="#FFCB05" stroke="#995B05" stroke-width="2" stroke-linecap="round" stroke-linejoin="round" d="M391.654,376.402
							c0,0,0.289,7.549,15.649-2.022c15.354-9.571,24.056-21.741,26.085-25.8c2.022-4.053,2.022-6.372,2.022-6.372
							s-11.301,7.239-19.704,8.108c-8.403,0.871-16.509,0.871-16.509,0.871L391.654,376.402z"/>
						<path fill="#BA830D" d="M394.841,360.467c0,0,0.577,3.477,10.435-0.578c9.855-4.061,15.938-6.957,15.938-6.957
							s-13.909,12.166-20.579,13.041C393.973,366.84,392.232,363.941,394.841,360.467z"/>
					</g>
					<g>
						<path fill="#FFCB05" stroke="#995B05" stroke-width="2" stroke-linecap="round" stroke-linejoin="round" d="M393.107,358.727
							c0,0,0.287,7.543,15.649-2.022c15.354-9.567,24.046-21.743,26.076-25.796c2.031-4.059,2.031-6.377,2.031-6.377
							s-11.302,4.635-19.704,5.506c-8.403,0.871-15.939-0.866-15.939-0.866L393.107,358.727z"/>
						<path fill="#BA830D" d="M396.293,342.785c0,0,0.578,3.482,10.426-0.577c9.864-4.058,15.939-6.951,15.939-6.951
							s-13.9,12.164-20.57,13.034C395.427,349.166,393.677,346.27,396.293,342.785z"/>
					</g>
					<path fill="#FFCB05" stroke="#995B05" stroke-width="2" stroke-linecap="round" stroke-linejoin="round" d="M395.716,329.458
						c0,0,2.608,9.278,17.97-0.288c15.354-9.57,22.313-18.842,24.336-22.895c2.029-4.053,2.029-6.377,2.029-6.377
						s-10.729,4.924-19.134,5.799c-8.403,0.871-21.148-4.063-21.148-4.063L395.716,329.458z"/>
					<path fill="#BA830D" d="M400.065,314.102c0,0,1.263,3.146,10.408,2.097c9.139-1.048,14.934-2.06,14.934-2.06
						s-15.081,7.535-20.638,6.483C399.216,319.564,396.83,316.635,400.065,314.102z"/>
					<path fill="#FFCB05" stroke="#995B05" stroke-width="2" stroke-linecap="round" stroke-linejoin="round" d="M394.841,310.039
						c0,0,10.146,2.314,21.453-8.114c11.293-10.43,18.829-38.252,18.829-38.252s-10.434,8.989-25.796,7.825
						c-15.354-1.159-23.179,5.218-23.179,5.218S389.632,309.75,394.841,310.039z"/>
					<path fill="#BA830D" d="M384.704,290.917c0,0,2.896,2.026,17.673-2.03c14.784-4.057,22.602-10.145,21.734-10.145
						c-0.866,0-6.688,14.722-27.529,15.939C386.454,295.271,382.087,293.521,384.704,290.917z"/>
					<path fill="#FFCB05" stroke="#995B05" stroke-width="2" stroke-linecap="round" stroke-linejoin="round" d="M428.453,226.585
						c0,0-18.54,46.366-24.046,52.45c-5.506,6.088-22.313,13.62-22.313,13.62l-9.855-32.169c0,0,3.765-10.137,22.022-14.775
						c18.251-4.639,25.219-10.145,28.115-12.749C425.266,230.354,428.453,226.585,428.453,226.585z"/>
					<path fill="#BA830D" d="M414.842,246.866c0,0-15.939,21.739-24.632,25.507c-8.701,3.761-12.754,4.347-12.754,4.347
						s-2.022-2.323-0.289-3.769c1.742-1.453,10.723-4.932,11.879-5.799c1.164-0.871,10.435-5.506,14.495-8.985
						C407.594,254.691,414.842,246.866,414.842,246.866z"/>
					<path fill="#FFCB05" stroke="#995B05" stroke-width="2" stroke-linecap="round" stroke-linejoin="round" d="M407.883,189.777
						c0,0,9.856,39.701-8.684,57.378c-18.558,17.682-26.96,21.446-26.96,21.446s-12.167-11.302-13.909-20.865
						c-1.741-9.566,2.319-22.315,2.319-22.315s9.855-2.312,21.733-9.559C394.262,208.614,407.883,189.777,407.883,189.777z"/>
					<path fill="#BA830D" d="M405.274,210.063c0,0-6.95,20.863-19.126,29.853c-12.167,8.98-24.344,13.327-24.344,13.327
						S357.464,249.764,365,246c7.528-3.769,17.962-6.666,25.21-14.198C397.457,224.266,405.274,210.063,405.274,210.063z"/>
				</g>
				<g>
					<path fill="#BA830D" d="M344.719,388.979c0,0-0.636,4.682,1.915,8.722c2.55,4.041,8.717,7.45,8.717,7.45
						s-8.072-9.154-7.651-12.557C348.119,389.186,346.634,387.918,344.719,388.979z"/>
					<path fill="#FFCB05" stroke="#995B05" stroke-width="2" stroke-linecap="round" stroke-linejoin="round" d="M335.094,262.679
						c0,0-8.47-20.348,1.691-28.145c10.179-7.797,18.994-7.458,22.732-5.085c3.725,2.369-0.685,15.936-0.685,15.936l1.7,6.104
						c0,0,11.522-4.408,14.916,3.054c3.393,7.454-6.101,22.04-6.101,22.04s5.763-10.169,9.154-11.87
						c3.384-1.695,12.877,8.816,9.831,16.612c-3.055,7.805-10.517,15.604-10.517,15.604s8.478-12.547,13.224-12.207
						c4.755,0.338,7.471,10.517,6.108,14.92c-1.354,4.403-8.815,9.492-8.815,9.492s12.886-4.064,14.577,1.357
						c1.701,5.424,1.783,12.226-2.707,15.598c-4.49,3.367-8.816,4.403-8.816,4.403s15.595-4.065,15.933,4.411
						c0.347,8.479-2.732,19.584-8.47,21.707c-5.744,2.113-7.124,2.707-7.124,2.707s12.854-5.993,13.547,0.568
						c0.692,6.555-1.685,16.043-8.123,18.078c-6.438,2.039-13.9,0.678-13.9,0.678s12.877,1.705,9.154,7.805
						c-3.731,6.104-6.785,10.513-12.208,9.488c-5.433-1.012-11.193-5.42-11.193-5.42s6.785,11.189,1.023,11.189
						c-5.763,0-12.557,0-14.248-2.708c-1.692-2.716-2.03-6.108-2.03-6.108s7.462,9.836-1.692,7.124
						c-9.153-2.716-14.247-5.77-15.271-9.497c-1.007-3.729,0.686-7.119,4.417-7.457c3.729-0.339,39.003-8.14,38.317-35.949
						C378.843,319.305,335.094,262.679,335.094,262.679z"/>
					<path fill="#FFDD00" stroke="#995B05" stroke-width="2" stroke-linecap="round" stroke-linejoin="round" d="M342.902,275.906
						c0,0-5.094-21.024,4.737-24.417c9.831-3.394,14.586,0.339,15.603,5.77c1.022,5.421-8.479,10.843-8.479,18.647
						c0,0,2.377-10.17,9.154-7.801c6.785,2.369,9.162,8.14,6.108,17.293c-3.056,9.154-4.07,11.871-4.07,11.871
						s3.394-11.533,9.832-11.533c6.446,0,9.831,0.344,8.478,9.498s-7.124,16.951-7.124,16.951s6.777-9.15,9.831-7.115
						c3.063,2.029,5.094,9.154,2.387,13.896c-2.717,4.75-6.108,10.175-6.108,10.175s9.154-6.438,12.877-1.354
						c3.739,5.085,1.023,13.224-1.692,15.597c-2.707,2.373-7.122,5.085-7.122,5.085s13.908-7.801,12.894,1.696
						c-1.016,9.493-6.785,12.209-10.517,13.9c-3.724,1.701-7.115,3.051-7.115,3.051s10.508-0.34,9.154,5.093
						c-1.362,5.424-7.124,10.504-11.531,8.474c-4.408-2.039-9.832-5.424-9.832-5.424s17.632,10.17,7.115,11.862
						c-10.509,1.7-10.509,3.396-14.577,1.362c-4.069-2.035-6.777-4.408-6.777-4.408s-0.347,8.814-3.739,8.814
						c-3.392,0-7.114,0.34-11.185-4.406c-4.069-4.748-4.747-2.035-8.816-2.713c-4.068-0.681-11.87-1.357-11.87-1.357
						s-7.114-9.492,12.895-10.508c20.001-1.021,35.94-1.357,40.349-13.909c4.4-12.548,5.085-26.101-7.801-46.791
						C353.062,292.523,342.902,275.906,342.902,275.906z"/>
					<path fill="#FFCB05" stroke="#995B05" stroke-width="2" stroke-linecap="round" stroke-linejoin="round" d="M352.733,233.515
						c0,0-8.824,3.393-6.108,11.532c2.716,8.135,9.84,12.551,18.317,8.819c8.478-3.73,8.814-11.531,7.792-17.974
						c-1.017-6.443-15.933-18.99-31.532-11.871c-15.603,7.12-25.771,26.448-6.447,53.917c19.332,27.471,42.058,57.642,36.964,72.228
						c-5.084,14.578-11.522,22.04-26.447,21.701s-31.193-5.089-35.948,11.532c-4.738,16.615,13.57,24.408,22.387,16.954
						c8.816-7.462,3.385-16.616,2.03-18.313s-6.101-4.073-8.479-1.356c-2.368,2.715-1.69,4.068-1.69,4.068s1.015-7.462,9.491-5.77
						c8.479,1.699,13.563,4.406,26.109,1.022c12.547-3.394,29.849-14.586,26.109-38.995c-3.73-24.416-21.701-46.113-28.141-54.931
						c-6.446-8.82-21.023-28.481-18.993-37.308C340.187,239.957,352.733,233.515,352.733,233.515z"/>
					<path fill="#FFF799" d="M351.71,227.415c0,0-16.608,3.393-16.955,20.005c-0.338,16.616,33.91,57.313,40.011,74.943
						c6.116,17.628,5.771,36.279-1.008,43.402c-6.785,7.119-10.516,8.479-10.516,8.479s13.834-10.492,13.224-25.1
						c-1.354-32.379-19.663-51.199-31.871-67.139c-12.209-15.939-21.701-32.891-12.886-43.741
						C340.525,227.415,351.71,227.415,351.71,227.415z"/>
				</g>
				<g>
					<path fill="#FFCB05" stroke="#995B05" stroke-width="2" stroke-linecap="round" stroke-linejoin="round" d="M306.499,152.558
						c0,0-4.895-27.455,18.045-40.406c22.956-12.947,29.428-13.926,29.428-13.926s-1.567,31.194-16.286,44.525
						c-14.7,13.34-21.957,15.3-21.957,15.3s17.648-5.886,28.438,8.63c10.781,14.521,13.34,42.376,33.539,36.296
						c20.207-6.079,19.035-24.128,4.325-28.445l-3.731,0.194c0,0,3.137,1.771,2.551,4.123c-0.594,2.353-8.832,4.713-10.005-0.784
						c-1.18-5.493,2.155-12.365,12.746-10.793c10.6,1.572,20.991,14.321,16.872,29.226c-4.119,14.912-18.433,33.547-44.724,27.269
						c-26.283-6.277-43.75-26.278-45.318-41.384c-1.567-15.11,1.379-14.322,1.379-17.071
						C311.799,162.563,306.499,152.558,306.499,152.558z"/>
					<path fill="#E6B00F" stroke="#995B05" stroke-width="2" stroke-linecap="round" stroke-linejoin="round" d="M346.328,106.075
						c0,0-4.317,24.913-11.187,32.763c-6.866,7.842-23.542,13.728-23.542,13.728s-1.965-24.124,13.149-33.935
						C339.847,108.82,346.328,106.075,346.328,106.075z"/>
					<path fill="#E6B00F" stroke="#995B05" stroke-width="2" stroke-linecap="round" stroke-linejoin="round" d="M319.062,161.782
						c0,0,11.367-4.313,19.218,4.119s8.833,33.74,23.931,40.019c15.106,6.277,26.877-1.181,32.168-6.084
						c0,0-11.961,21.186-37.261,15.102c-25.31-6.079-39.631-27.859-41.001-38.838C314.737,165.112,319.062,161.782,319.062,161.782z
						"/>
					<path fill="#BA830D" d="M320.094,164.428c-0.256-0.095-0.486-0.141-0.644-0.1C319.294,164.382,319.55,164.378,320.094,164.428z
						 M349.861,202.58c-3.715-2.203-6.259-6.521-8.527-11.453c0.652,0.821,1.511,1.631,2.642,2.233
						c2.542,1.374,7.843,0.982,7.843,0.982s-1.768-0.784-4.517-1.767c-2.674-0.949-7.008-4.132-7.214-4.284
						c-1.214-2.84-2.386-5.771-3.657-8.568c0.536,0.23,1.147,0.417,1.85,0.495c1.774,0.198,7.651,3.141,7.651,3.141
						s-2.153-2.555-3.921-3.73c-1.461-0.971-6.207-3.521-7.834-4.388c-0.453-0.788-0.898-1.561-1.387-2.278
						c-0.619-0.925-1.246-1.717-1.89-2.451c0.462-0.091,1.205-0.248,2.285-0.491c1.768-0.393,6.273,1.176,6.273,1.176
						s-0.784-1.568-3.335-2.551c-2.551-0.978-7.651-0.784-7.651-0.784l0.445,0.628c-3.78-3.335-7.38-3.921-8.824-4.062
						c1.337,0.499,3.896,2.963,6.901,7.017c0.023,1.96-0.133,5.15-1.271,7.792c-1.767,4.123-2.739,6.476-2.739,6.476
						s4.117-5.886,5.299-9.612c0.281-0.879,0.33-1.7,0.281-2.443c1.699,2.493,3.49,5.436,5.25,8.774
						c-0.142,1.189-0.24,2.634-0.24,4.264c0,4.516-2.748,10.595-2.748,10.595s2.559-2.158,3.729-5.299
						c0.528-1.412,0.858-3.761,1.065-5.936c0.636,1.346,1.271,2.724,1.873,4.169c0.908,2.154,2.072,4.09,3.385,5.86l0.743,9.047
						l0.817-7.103c8.849,10.1,22.855,13.418,23.501,13.574C366.725,211.801,358.099,207.483,349.861,202.58z"/>
					<path fill="#BA830D" d="M329.067,135.107c-2.007,0.351-4.003,1.411-5.274,2.204c1.932-2.254,3.854-4.441,5.415-6.167
						c0.883-0.627,1.767-1.213,2.402-1.531c1.964-0.978,8.048-3.727,8.048-3.727s-2.551,0.396-5.103,0.982
						c-0.568,0.124-1.172,0.343-1.791,0.595c2.74-2.865,5.324-8.837,5.324-8.837s-4.705,4.42-9.278,9.191
						c0.521-1.564,1.141-3.483,1.23-4.482c0.198-1.965-1.568-3.925-1.568-3.925s-0.783,5.691-1.173,7.846
						c-0.147,0.764-0.279,1.696-0.429,2.612c-1.676,1.804-3.211,3.563-4.392,5.085c0.008-1.395,0.008-2.926-0.092-3.966
						c-0.189-2.353-1.956-5.493-1.956-5.493s0.784,9.018,0.784,11.177c-3.724,5.691-6.761,11.609-6.761,11.609
						s3.211-3.834,6.942-8.196c0,0.041,0.017,0.119,0.017,0.119s3.723-1.762,5.101-2.353c1.38-0.59,9.222-2.353,9.222-2.353
						S332.394,134.513,329.067,135.107z"/>
					<g>
						<path fill="#FFCB05" stroke="#995B05" stroke-width="2" stroke-linecap="round" stroke-linejoin="round" d="M324.412,152.698
							c0-2.097-1.7-3.802-3.806-3.802c-0.065,0-0.133,0.041-0.216,0.046c0-0.021,0-0.042,0-0.059c0.025,0,0.042,0.013,0.066,0.013
							c2.104,0,3.806-1.704,3.806-3.801c0-2.097-1.7-3.802-3.806-3.802c-0.851,0-1.593,0.33-2.229,0.805
							c0.141-0.396,0.257-0.813,0.257-1.263c0-2.097-1.7-3.797-3.807-3.797c-1.832,0-3.294,1.329-3.655,3.063
							c-0.578-1.354-1.916-2.308-3.484-2.308c-2.097,0-3.805,1.705-3.805,3.802c0,0.838,0.321,1.568,0.784,2.195
							c-0.348-0.104-0.702-0.215-1.091-0.215c-2.104,0-3.797,1.696-3.797,3.802c0,1.795,1.271,3.235,2.955,3.628
							c-1.113,0.664-1.891,1.828-1.891,3.215c0,2.101,1.7,3.802,3.797,3.802c0.454,0,0.867-0.116,1.271-0.256
							c-0.092,0.33-0.206,0.656-0.206,1.015c0,2.097,1.699,3.802,3.805,3.802c2.098,0,3.806-1.705,3.806-3.802
							c0-0.516-0.115-0.999-0.297-1.444c0.165-0.017,0.338-0.024,0.495-0.05c-0.091,0.339-0.198,0.673-0.198,1.04
							c0,2.102,1.7,3.806,3.797,3.806s3.798-1.704,3.798-3.806c0-0.714-0.248-1.345-0.586-1.915c0.148,0.017,0.28,0.091,0.43,0.091
							C322.712,156.503,324.412,154.803,324.412,152.698z"/>
						<path fill="#FFCB05" stroke="#995B05" stroke-width="2" stroke-linecap="round" stroke-linejoin="round" d="M319.253,149.809
							c0,3.991-3.236,7.219-7.223,7.219c-3.995,0-7.223-3.228-7.223-7.219c0-3.991,3.228-7.223,7.223-7.223
							C316.016,142.586,319.253,145.817,319.253,149.809z"/>
						<path fill="#E6B00F" stroke="#995B05" stroke-width="2" stroke-linecap="round" stroke-linejoin="round" d="M316.429,149.809
							c0,2.431-1.973,4.408-4.398,4.408c-2.443,0-4.417-1.978-4.417-4.408c0-2.435,1.974-4.408,4.417-4.408
							C314.457,145.4,316.429,147.374,316.429,149.809z"/>
						<path fill="#FFFFFF" d="M314.457,148.281c0,0.76-0.611,1.375-1.37,1.375c-0.76,0-1.37-0.615-1.37-1.375
							c0-0.751,0.61-1.366,1.37-1.366C313.845,146.915,314.457,147.53,314.457,148.281z"/>
					</g>
				</g>
			</g>
			<g>
				<path fill="#FFF799" d="M143.227,239.256c0,3.12-2.525,5.646-5.643,5.646c-3.111,0-5.638-2.526-5.638-5.646
					c0-3.112,2.525-5.638,5.638-5.638C140.701,233.618,143.227,236.144,143.227,239.256z"/>
				<g>
					<g>
						<path fill="#FFCB05" stroke="#995B05" stroke-width="2" stroke-linecap="round" stroke-linejoin="round" d="M132.802,387.488
							c0,0-1.914,10.215-8.937,12.126c-7.024,1.911-8.939,2.341-8.089,2.341c0.85,0,12.13,1.275,16.807-7.446
							C137.267,385.784,132.802,387.488,132.802,387.488z"/>
						<path fill="#FFCB05" stroke="#995B05" stroke-width="2" stroke-linecap="round" stroke-linejoin="round" d="M122.157,388.764
							c0,0-5.316,3.83-10.851,3.83c-5.531,0-12.127-0.215-11.495-0.215c0.644,0,12.345-1.061,14.898-2.55
							C117.266,388.339,123.437,386.428,122.157,388.764z"/>
						<path fill="#FFCB05" stroke="#995B05" stroke-width="2" stroke-linecap="round" stroke-linejoin="round" d="M103.436,381.743
							c0,0-5.109,0.64-11.069-0.431c-5.952-1.061-8.09-2.976-8.09-2.976s9.584,1.915,12.135,1.701
							c2.555-0.215,7.66-0.646,6.811,1.063"/>
						<path fill="#FFCB05" stroke="#995B05" stroke-width="2" stroke-linecap="round" stroke-linejoin="round" d="M151.32,395.229
							c0-9.474-13.376-7.959-13.376-7.959s-27.637,7.198-40.897-19.312c-13.258-26.511,1.511-83.31,1.511-83.31l20.835-51.122
							c0,0-3.409-11.367-12.877-20.075c-9.469-8.705-25.756-26.126-25.756-50.741c0-24.611,19.316-57.563,19.316-57.563
							s-41.653,18.936-43.552,63.993c-1.892,45.063,24.234,71.576,24.234,71.576s-21.205-20.071-29.53-35.594
							c-8.332-15.527-9.092-34.463-9.092-34.463s-17.798,30.678-6.06,58.318c11.742,27.646,29.539,36.729,29.539,36.729
							s-10.604,4.544-26.51-6.814c-15.907-11.357-20.827-30.669-20.827-30.669s-6.574,45.589,23.484,64.375
							C60.65,304.4,67.51,306.234,67.51,306.234s-18.182-1.521-32.192-7.959c-14.008-6.435-18.928-11.737-18.928-11.737
							s11.737,29.164,27.641,36.733c15.902,7.572,24.995,9.848,24.995,9.848s-15.151,0.756-28.78-3.033
							c-13.637-3.785-19.695-7.949-19.695-7.949s15.147,23.48,28.404,27.27c13.257,3.785,21.202,3.404,21.202,3.404
							s-22.337,10.225-37.864-2.648c0,0,7.193,14.388,20.826,19.313c13.633,4.928,32.948,0,32.948,0s-6.438,7.568-20.075,7.568
							c-13.628,0-26.126-4.915-26.126-4.915s14.388,20.45,29.16,20.826c14.763,0.38,28.021-1.14,28.021-1.14
							s-9.844,6.063-18.937,6.435c-9.084,0.38-23.478-2.271-22.337-1.89c1.131,0.379,17.417,14.012,32.188,11.361
							c14.765-2.646,28.776-9.848,28.776-9.848s-5.68,7.577-10.604,11.742c-4.92,4.164-20.825,4.544-20.825,4.544
							s19.694,8.704,32.563,3.028c3.687-1.63,7.495-3.347,11.053-5.188c0,0,1.444,5.571-5.364,10.111
							c-6.822,4.544-13.253,4.103-13.253,4.103s27.261,1.197,35.21-11.676C153.471,401.657,151.32,395.229,151.32,395.229z"/>
						<path fill="#BA830D" d="M71.676,144.534c0,0-9.093,39.758,3.025,60.589c12.117,20.83,26.514,29.535,26.514,29.535
							s-1.511-8.329-10.224-18.177c-8.712-9.844-15.53-20.447-18.181-31.05C70.157,174.828,71.676,144.534,71.676,144.534z"/>
						<path fill="#BA830D" d="M39.866,199.443c0,1.144,1.14,33.712,21.966,46.206s31.806,12.494,31.806,12.494
							s-6.818-7.199-7.949-7.199c-1.135,0-15.146-1.891-27.266-14.768C46.301,223.304,39.866,199.443,39.866,199.443z"/>
						<path fill="#BA830D" d="M27.749,260.037c0,0,3.025,15.521,27.646,24.99c24.614,9.469,28.023,6.817,28.023,6.817
							s-4.169-4.544-6.438-4.544c-2.278,0-9.854-0.38-25.751-8.713C35.326,270.261,27.749,260.037,27.749,260.037z"/>
						<path fill="#BA830D" d="M31.158,304.34c2.271,1.898,17.417,14.393,29.535,15.151c12.117,0.759,17.037-1.14,17.037-1.14
							s-3.4-3.781-4.54-3.41c-1.135,0.381-8.709,3.039-17.797,0C46.301,311.922,31.158,304.34,31.158,304.34z"/>
						<path fill="#BA830D" d="M40.626,336.916c0,0,14.389,7.189,24.611,7.57c10.224,0.375,15.151-2.274,15.151-2.274l-4.169-3.024
							c0,0-9.469,3.399-17.418,1.891C50.85,339.559,40.626,336.916,40.626,336.916z"/>
						<path fill="#BA830D" d="M82.882,358.229c0,0-7.523,4.912-17.014,4.912c-9.488,0-15.704-0.33-15.704-0.33
							s16.035,4.912,25.521,2.291C85.168,362.48,86.15,360.193,82.882,358.229z"/>
						<path fill="#BA830D" d="M96.411,380.039c-0.979-1.131-10.917,5.992-21.71,4.688s-16.36-2.291-16.36-2.291
							s11.779,6.551,24.862,4.26C96.287,384.404,99.151,383.204,96.411,380.039z"/>
						<path fill="#BA830D" d="M107.092,392.912c0,0-13.747,6.863-17.993,7.522c-4.252,0.652-8.512,0.652-8.512,0.652
							s7.528,0.982,16.356-0.981C105.775,398.141,107.092,392.912,107.092,392.912z"/>
						<path fill="#BA830D" d="M128.021,399.449c0,0-10.793,9.489-15.7,11.123c-4.907,1.635-7.854,2.291-7.854,2.291
							s12.103,0.979,17.996-3.604C128.348,404.679,128.021,399.449,128.021,399.449z"/>
					</g>
					<path fill="#BA830D" d="M140.779,406.651c0,0-1.635,4.898-6.542,8.498c-4.903,3.604-3.925,4.582-3.925,4.582
						S146.669,411.555,140.779,406.651z"/>
				</g>
				<g>
					<path fill="#FFCB05" stroke="#995B05" stroke-width="2" stroke-linecap="round" stroke-linejoin="round" d="M164.156,387.129
						c0,0-2.897,14.487-15.65,19.993c-12.749,5.506-17.385,4.639-17.385,4.639s6.662-5.794,9.561-9.565
						c2.896-3.766,2.029-9.561,2.029-9.561s-7.536,12.457-17.966,13.332c-10.43,0.866-20.868-2.031-20.868-2.031
						s10.728-2.318,13.047-4.928c2.312-2.607,4.626-3.476,4.626-3.476s-15.936,3.765-22.886,0.866
						c-6.958-2.896-12.46-5.217-12.46-5.217s17.095-1.742,19.699-3.183c2.608-1.448,4.064-2.319,4.064-2.319
						s-15.646,0.862-23.188-2.322c-7.532-3.188-10.727-5.795-10.727-5.795s14.494-2.895,15.65-3.184
						c1.159-0.293,6.958-3.479,6.958-3.479s7.825,8.398,13.909,10.723C118.657,383.943,164.156,387.129,164.156,387.129z"/>
					<g>
						<path fill="#FFCB05" stroke="#995B05" stroke-width="2" stroke-linecap="round" stroke-linejoin="round" d="M107.356,376.402
							c0,0-0.293,7.549-15.65-2.022c-15.361-9.571-24.055-21.741-26.081-25.8c-2.025-4.053-2.025-6.372-2.025-6.372
							s11.301,7.239,19.704,8.108c8.402,0.871,16.518,0.871,16.518,0.871L107.356,376.402z"/>
						<path fill="#BA830D" d="M104.166,360.467c0,0-0.578,3.477-10.43-0.578c-9.853-4.061-15.944-6.957-15.944-6.957
							s13.914,12.166,20.579,13.041C105.037,366.84,106.774,363.941,104.166,360.467z"/>
					</g>
					<g>
						<path fill="#FFCB05" stroke="#995B05" stroke-width="2" stroke-linecap="round" stroke-linejoin="round" d="M105.903,358.727
							c0,0-0.289,7.543-15.65-2.022c-15.354-9.567-24.054-21.743-26.076-25.796c-2.03-4.059-2.03-6.377-2.03-6.377
							s11.301,4.635,19.704,5.506c8.402,0.871,15.942-0.866,15.942-0.866L105.903,358.727z"/>
						<path fill="#BA830D" d="M102.717,342.785c0,0-0.576,3.482-10.434-0.577c-9.854-4.058-15.938-6.951-15.938-6.951
							s13.908,12.164,20.578,13.034C103.588,349.166,105.326,346.27,102.717,342.785z"/>
					</g>
					<path fill="#FFCB05" stroke="#995B05" stroke-width="2" stroke-linecap="round" stroke-linejoin="round" d="M103.299,329.458
						c0,0-2.607,9.278-17.966-0.288c-15.361-9.57-22.315-18.842-24.343-22.895c-2.031-4.053-2.031-6.377-2.031-6.377
						s10.725,4.924,19.127,5.799c8.402,0.871,21.156-4.063,21.156-4.063L103.299,329.458z"/>
					<path fill="#BA830D" d="M98.953,314.102c0,0-1.271,3.146-10.417,2.097c-9.146-1.048-14.929-2.06-14.929-2.06
						s15.077,7.535,20.633,6.483C99.795,319.564,102.181,316.635,98.953,314.102z"/>
					<path fill="#FFCB05" stroke="#995B05" stroke-width="2" stroke-linecap="round" stroke-linejoin="round" d="M104.166,310.039
						c0,0-10.141,2.314-21.44-8.114c-11.306-10.43-18.837-38.252-18.837-38.252s10.434,8.989,25.786,7.825
						c15.362-1.159,23.188,5.218,23.188,5.218S109.383,309.75,104.166,310.039z"/>
					<path fill="#BA830D" d="M114.315,290.917c0,0-2.906,2.026-17.683-2.03c-14.783-4.057-22.604-10.145-21.733-10.145
						c0.866,0,6.687,14.722,27.529,15.939C112.557,295.271,116.924,293.521,114.315,290.917z"/>
					<path fill="#FFCB05" stroke="#995B05" stroke-width="2" stroke-linecap="round" stroke-linejoin="round" d="M70.549,226.585
						c0,0,18.55,46.366,24.06,52.45c5.501,6.088,22.315,13.62,22.315,13.62l9.849-32.169c0,0-3.772-10.137-22.023-14.775
						c-18.26-4.639-25.21-10.145-28.115-12.749C73.743,230.354,70.549,226.585,70.549,226.585z"/>
					<path fill="#BA830D" d="M84.173,246.866c0,0,15.937,21.739,24.628,25.507c8.7,3.761,12.749,4.347,12.749,4.347
						s2.035-2.323,0.294-3.769c-1.733-1.453-10.715-4.932-11.883-5.799c-1.16-0.871-10.43-5.506-14.49-8.985
						C91.417,254.691,84.173,246.866,84.173,246.866z"/>
					<path fill="#FFCB05" stroke="#995B05" stroke-width="2" stroke-linecap="round" stroke-linejoin="round" d="M91.128,189.777
						c0,0-9.853,39.701,8.692,57.378c18.548,17.682,26.947,21.446,26.947,21.446s12.175-11.302,13.913-20.865
						c1.732-9.566-2.32-22.315-2.32-22.315s-9.848-2.312-21.734-9.559C104.748,208.614,91.128,189.777,91.128,189.777z"/>
					<path fill="#BA830D" d="M93.736,210.063c0,0,6.954,20.863,19.126,29.853c12.167,8.98,24.343,13.327,24.343,13.327
						s4.342-3.479-3.187-7.243c-7.54-3.769-17.971-6.666-25.219-14.198C101.562,224.266,93.736,210.063,93.736,210.063z"/>
				</g>
				<g>
					<path fill="#BA830D" d="M154.292,388.979c0,0,0.637,4.682-1.915,8.722c-2.551,4.041-8.725,7.45-8.725,7.45
						s8.089-9.154,7.66-12.557C150.892,389.186,152.381,387.918,154.292,388.979z"/>
					<path fill="#FFCB05" stroke="#995B05" stroke-width="2" stroke-linecap="round" stroke-linejoin="round" d="M163.909,262.679
						c0,0,8.485-20.348-1.692-28.145c-10.174-7.797-18.989-7.458-22.721-5.085c-3.734,2.369,0.681,15.936,0.681,15.936l-1.691,6.104
						c0,0-11.54-4.408-14.924,3.054c-3.39,7.454,6.104,22.04,6.104,22.04s-5.766-10.169-9.153-11.87
						c-3.396-1.695-12.886,8.816-9.836,16.612c3.055,7.805,10.509,15.604,10.509,15.604s-8.47-12.547-13.225-12.207
						c-4.746,0.338-7.454,10.517-6.101,14.92s8.815,9.492,8.815,9.492s-12.89-4.064-14.577,1.357
						c-1.7,5.424-1.782,12.226,2.708,15.598c4.493,3.367,8.819,4.403,8.819,4.403s-15.598-4.065-15.936,4.411
						c-0.339,8.479,2.731,19.584,8.469,21.707c5.745,2.113,7.128,2.707,7.128,2.707s-12.86-5.993-13.55,0.568
						c-0.693,6.555,1.684,16.043,8.122,18.078c6.438,2.039,13.9,0.678,13.9,0.678s-12.886,1.705-9.153,7.805
						c3.729,6.104,6.785,10.513,12.208,9.488c5.428-1.012,11.188-5.42,11.188-5.42s-6.78,11.189-1.02,11.189
						c5.771,0,12.552,0,14.243-2.708c1.695-2.716,2.034-6.108,2.034-6.108s-7.458,9.836,1.696,7.124
						c9.154-2.716,14.239-5.77,15.259-9.497c1.017-3.729-0.677-7.119-4.407-7.457c-3.73-0.339-38.995-8.14-38.318-35.949
						C120.172,319.305,163.909,262.679,163.909,262.679z"/>
					<path fill="#FFDD00" stroke="#995B05" stroke-width="2" stroke-linecap="round" stroke-linejoin="round" d="M156.112,275.906
						c0,0,5.085-21.024-4.746-24.417c-9.836-3.394-14.582,0.339-15.604,5.77c-1.008,5.421,8.484,10.843,8.484,18.647
						c0,0-2.373-10.17-9.154-7.801c-6.784,2.369-9.157,8.14-6.107,17.293c3.055,9.154,4.074,11.871,4.074,11.871
						s-3.395-11.533-9.836-11.533c-6.442,0-9.831,0.344-8.475,9.498c1.354,9.154,7.12,16.951,7.12,16.951s-6.781-9.15-9.84-7.115
						c-3.046,2.029-5.089,9.154-2.369,13.896c2.708,4.75,6.101,10.175,6.101,10.175s-9.153-6.438-12.886-1.354
						c-3.731,5.084-1.016,13.224,1.7,15.597c2.712,2.373,7.116,5.085,7.116,5.085s-13.905-7.801-12.886,1.696
						c1.022,9.493,6.784,12.209,10.517,13.9c3.729,1.701,7.119,3.051,7.119,3.051s-10.512-0.34-9.154,5.093
						c1.35,5.424,7.124,10.504,11.527,8.474c4.408-2.039,9.832-5.424,9.832-5.424s-17.628,10.17-7.116,11.862
						c10.509,1.7,10.509,3.396,14.578,1.362c4.068-2.035,6.781-4.408,6.781-4.408s0.338,8.814,3.727,8.814
						c3.393,0,7.124,0.34,11.193-4.406c4.068-4.748,4.746-2.035,8.815-2.713c4.069-0.681,11.865-1.357,11.865-1.357
						s7.128-9.492-12.881-10.508c-20.01-1.021-35.945-1.357-40.354-13.909c-4.407-12.548-5.089-26.101,7.802-46.791
						C145.938,292.523,156.112,275.906,156.112,275.906z"/>
					<path fill="#FFCB05" stroke="#995B05" stroke-width="2" stroke-linecap="round" stroke-linejoin="round" d="M146.277,233.515
						c0,0,8.814,3.393,6.107,11.532c-2.716,8.135-9.836,12.551-18.313,8.819c-8.479-3.73-8.815-11.531-7.805-17.974
						c1.022-6.443,15.943-18.99,31.541-11.871c15.598,7.12,25.771,26.448,6.438,53.917c-19.324,27.471-42.049,57.642-36.956,72.228
						c5.085,14.578,11.532,22.04,26.448,21.701c14.925-0.339,31.202-5.089,35.94,11.532c4.755,16.615-13.555,24.408-22.37,16.954
						c-8.824-7.462-3.4-16.616-2.039-18.313c1.354-1.696,6.101-4.073,8.47-1.356c2.386,2.715,1.7,4.068,1.7,4.068
						s-1.016-7.462-9.493-5.77c-8.478,1.699-13.563,4.406-26.109,1.022c-12.547-3.394-29.84-14.586-26.108-38.995
						c3.724-24.416,21.692-46.113,28.145-54.931c6.442-8.82,21.021-28.481,18.985-37.308
						C158.824,239.957,146.277,233.515,146.277,233.515z"/>
					<path fill="#FFF799" d="M147.301,227.415c0,0,16.608,3.393,16.946,20.005c0.339,16.616-33.9,57.313-40.006,74.943
						c-6.104,17.628-5.766,36.279,1.016,43.402c6.781,7.119,10.505,8.479,10.505,8.479s-13.827-10.492-13.217-25.1
						c1.354-32.379,19.667-51.199,31.871-67.139c12.209-15.939,21.71-32.891,12.895-43.741
						C158.485,227.415,147.301,227.415,147.301,227.415z"/>
				</g>
				<g>
					<path fill="#FFCB05" stroke="#995B05" stroke-width="2" stroke-linecap="round" stroke-linejoin="round" d="M192.511,152.558
						c0,0,4.902-27.455-18.049-40.406c-22.951-12.947-29.424-13.926-29.424-13.926s1.568,31.194,16.278,44.525
						c14.718,13.34,21.97,15.3,21.97,15.3s-17.653-5.886-28.44,8.63c-10.789,14.521-13.341,42.376-33.543,36.296
						c-20.203-6.079-19.023-24.128-4.313-28.445l3.728,0.194c0,0-3.142,1.771-2.551,4.123c0.59,2.353,8.828,4.713,10-0.784
						c1.182-5.493-2.149-12.365-12.749-10.793c-10.595,1.572-20.991,14.321-16.868,29.226c4.119,14.912,18.44,33.547,44.725,27.269
						c26.282-6.277,43.741-26.278,45.31-41.384c1.576-15.11-1.361-14.322-1.361-17.071
						C187.22,162.563,192.511,152.558,192.511,152.558z"/>
					<path fill="#E6B00F" stroke="#995B05" stroke-width="2" stroke-linecap="round" stroke-linejoin="round" d="M152.69,106.075
						c0,0,4.313,24.913,11.177,32.763c6.868,7.842,23.538,13.728,23.538,13.728s1.961-24.124-13.141-33.935
						C159.162,108.82,152.69,106.075,152.69,106.075z"/>
					<path fill="#E6B00F" stroke="#995B05" stroke-width="2" stroke-linecap="round" stroke-linejoin="round" d="M179.956,161.782
						c0,0-11.379-4.313-19.226,4.119c-7.851,8.432-8.824,33.74-23.931,40.019c-15.105,6.277-26.877-1.181-32.173-6.084
						c0,0,11.971,21.186,37.267,15.102c25.309-6.079,39.627-27.859,41.001-38.838C184.273,165.112,179.956,161.782,179.956,161.782z
						"/>
					<path fill="#BA830D" d="M179.56,164.328c-0.157-0.041-0.389,0.005-0.641,0.1C179.461,164.378,179.725,164.382,179.56,164.328z
						 M133.069,211.603c0.645-0.156,14.652-3.475,23.501-13.574l0.826,7.103l0.733-9.047c1.313-1.771,2.478-3.706,3.385-5.86
						c0.606-1.445,1.237-2.823,1.874-4.169c0.211,2.175,0.536,4.523,1.064,5.936c1.18,3.141,3.723,5.299,3.723,5.299
						s-2.744-6.079-2.744-10.595c0-1.63-0.104-3.074-0.228-4.264c1.75-3.339,3.541-6.281,5.241-8.774
						c-0.049,0.743,0.009,1.564,0.289,2.443c1.172,3.727,5.291,9.612,5.291,9.612s-0.979-2.353-2.744-6.476
						c-1.131-2.642-1.296-5.832-1.268-7.792c3.005-4.054,5.56-6.518,6.904-7.017c-1.447,0.141-5.052,0.727-8.828,4.063l0.438-0.628
						c0,0-5.098-0.193-7.645,0.784c-2.551,0.982-3.335,2.551-3.335,2.551s4.516-1.568,6.273-1.176
						c1.085,0.243,1.832,0.4,2.278,0.491c-0.637,0.734-1.271,1.526-1.884,2.451c-0.481,0.718-0.933,1.49-1.378,2.278
						c-1.631,0.867-6.385,3.417-7.842,4.388c-1.763,1.176-3.921,3.73-3.921,3.73s5.886-2.942,7.645-3.141
						c0.71-0.078,1.319-0.265,1.864-0.495c-1.278,2.798-2.451,5.729-3.661,8.568c-0.21,0.152-4.544,3.335-7.223,4.284
						c-2.744,0.982-4.511,1.767-4.511,1.767s5.3,0.392,7.85-0.982c1.123-0.603,1.981-1.412,2.634-2.233
						c-2.262,4.933-4.813,9.25-8.519,11.453C140.911,207.483,132.285,211.801,133.069,211.603z"/>
					<path fill="#BA830D" d="M169.943,135.107c2.01,0.351,4.003,1.411,5.282,2.204c-1.943-2.254-3.858-4.441-5.432-6.167
						c-0.88-0.627-1.767-1.213-2.395-1.531c-1.969-0.978-8.044-3.727-8.044-3.727s2.547,0.396,5.098,0.982
						c0.565,0.124,1.18,0.343,1.791,0.595c-2.741-2.865-5.315-8.837-5.315-8.837s4.688,4.42,9.271,9.191
						c-0.524-1.564-1.131-3.483-1.234-4.482c-0.193-1.965,1.564-3.925,1.564-3.925s0.788,5.691,1.181,7.846
						c0.141,0.764,0.276,1.696,0.43,2.612c1.668,1.804,3.211,3.563,4.398,5.085c-0.017-1.395-0.008-2.926,0.079-3.966
						c0.198-2.353,1.96-5.493,1.96-5.493s-0.784,9.018-0.784,11.177c3.729,5.691,6.762,11.609,6.762,11.609
						s-3.221-3.834-6.942-8.196c-0.008,0.041-0.017,0.119-0.017,0.119s-3.728-1.762-5.102-2.353
						c-1.371-0.59-9.213-2.353-9.213-2.353S166.608,134.513,169.943,135.107z"/>
					<g>
						<path fill="#FFCB05" stroke="#995B05" stroke-width="2" stroke-linecap="round" stroke-linejoin="round" d="M174.595,152.698
							c0-2.097,1.703-3.802,3.801-3.802c0.083,0,0.145,0.041,0.215,0.046c0-0.021,0.009-0.042,0.009-0.059
							c-0.024,0-0.046,0.013-0.07,0.013c-2.102,0-3.802-1.704-3.802-3.801c0-2.097,1.7-3.802,3.802-3.802
							c0.854,0,1.598,0.33,2.232,0.805c-0.141-0.396-0.256-0.813-0.256-1.263c0-2.097,1.705-3.797,3.806-3.797
							c1.832,0,3.302,1.329,3.648,3.063c0.586-1.354,1.932-2.308,3.496-2.308c2.101,0,3.801,1.705,3.801,3.802
							c0,0.838-0.326,1.568-0.784,2.195c0.347-0.104,0.702-0.215,1.086-0.215c2.102,0,3.801,1.696,3.801,3.802
							c0,1.795-1.271,3.235-2.955,3.628c1.114,0.664,1.896,1.828,1.896,3.215c0,2.101-1.705,3.802-3.801,3.802
							c-0.454,0-0.871-0.116-1.271-0.256c0.091,0.33,0.206,0.656,0.206,1.015c0,2.097-1.7,3.802-3.806,3.802
							c-2.098,0-3.797-1.705-3.797-3.802c0-0.516,0.106-0.999,0.293-1.444c-0.173-0.017-0.338-0.024-0.503-0.05
							c0.095,0.339,0.21,0.673,0.21,1.04c0,2.102-1.7,3.806-3.807,3.806c-2.097,0-3.801-1.704-3.801-3.806
							c0-0.714,0.247-1.345,0.595-1.915c-0.152,0.017-0.284,0.091-0.441,0.091C176.299,156.503,174.595,154.803,174.595,152.698z"/>
						<path fill="#FFCB05" stroke="#995B05" stroke-width="2" stroke-linecap="round" stroke-linejoin="round" d="M179.766,149.809
							c0,3.991,3.235,7.219,7.224,7.219c3.986,0,7.223-3.228,7.223-7.219c0-3.991-3.235-7.223-7.223-7.223
							C183.002,142.586,179.766,145.817,179.766,149.809z"/>
						<path fill="#E6B00F" stroke="#995B05" stroke-width="2" stroke-linecap="round" stroke-linejoin="round" d="M182.581,149.809
							c0,2.431,1.974,4.408,4.408,4.408s4.407-1.978,4.407-4.408c0-2.435-1.974-4.408-4.407-4.408
							C184.554,145.4,182.581,147.374,182.581,149.809z"/>
						<path fill="#FFFFFF" d="M184.554,148.281c0,0.76,0.614,1.375,1.369,1.375c0.751,0,1.37-0.615,1.37-1.375
							c0-0.751-0.619-1.366-1.37-1.366C185.169,146.915,184.554,147.53,184.554,148.281z"/>
					</g>
				</g>
			</g>
		</g>
		<path fill="#FFF799" d="M164.734,238.133c0,0-15.841-18.478-27.987-8.444c-12.146,10.029-2.108,21.652,2.638,20.063
			c4.76-1.585,5.812-5.808,1.594-9.506c-4.23-3.698-2.113-9.501,4.223-10.029C151.535,229.688,164.734,238.133,164.734,238.133z"/>
		<path fill="#FFF799" d="M361.161,233.907c0,0-13.728,4.226-8.452,10.037c5.283,5.808,2.699-0.594,5.813-4.227
			C361.689,236.021,361.161,233.907,361.161,233.907z"/>
		<path fill="#FFF799" d="M167.458,383.869c0,0-4.309,9.505,5.722,10.558c10.037,1.058,11.095-5.274,11.095-6.86
			c0-1.584-4.228-10.032-4.228-10.032s3.698,16.368-3.697,13.728C168.957,388.619,171.148,384.926,167.458,383.869z"/>
		<path fill="#FFF799" d="M323.14,374.359c0,0-13.728,9.505-6.858,16.373c6.858,6.863,11.078,6.336,12.671,1.053
			c1.585-5.283,1.585-5.809,0-5.809c-1.593,0-3.698,4.756-3.698,4.756s-9.51-2.646-7.396-7.393
			C319.97,378.582,323.14,374.359,323.14,374.359z"/>
	</g>
	<g>
		<path fill="#C4161C" d="M334.252,291.152c0-17.389-6.406-23.331-9.601-23.331c-3.211,0-8.7-1.375-15.106-1.375
			c-6.396,0-10.979,5.497-10.979,13.272c0,7.776,1.833,42.092,1.833,49.412c0,7.314-6.405,2.741-6.405,0
			c0-2.744-1.371-37.521-1.371-47.588c0-9.075-0.421-15.525-13.569-16.707l-1.527-45.508h4.573
			c1.379,4.573,8.229,10.066,16.014,10.982c7.784,0.917,16.015-8.237,20.125-10.066c2.822-1.254,5.406,0.702,6.769,2.064
			c-2.435-1.899-6.092,0.132-7.685,2.513c-1.824,2.745,0.462,9.146,10.069,8.234c9.608-0.916,7.776-9.608,2.749-16.01
			c-5.034-6.41-17.393-0.921-27.454,3.198c-10.063,4.119-14.636-7.771-14.636-7.771h-20.134c0,0,0.442,23.687,0.976,52.359
			c-12.778,1.026-14.239,5.79-14.239,9.853c0,3.834-0.326,35.676-0.43,47.463c-0.272-0.196-2.295-1.638-4.854-3.558l-1.585-107.5
			h-21.957c0,0-3.207,8.692-11.44,9.154c-8.238,0.454-17.843-14.189-30.195-7.321c-12.35,6.859-1.37,16.472,2.291,18.3
			c3.661,1.829,12.349-1.37,8.69-7.321c-3.655-5.947-9.148-1.828-9.148-1.828s1.37-4.119,7.321-4.573
			c5.942-0.458,13.72,12.353,23.336,12.353c9.604,0,14.178-11.898,14.178-11.898l7.316-0.454c0,0,0,48.642,0,91.226
			c-2.698-3.688-4.456-8.229-3.573-11.951c0.957-4.018,3.438-5.543,3.438-5.543v-3.629c0,0-6.493,2.484-8.98,9.936
			c-2.48,7.438-0.582,16.592,9.116,24.605c0,3.563,0,7.029,0,10.364c-7.842,0.128-17.009,0.28-20.129,0.28
			c-5.484,0-5.946-6.868-5.946-6.868s0-37.971,0-45.284c0-7.326-4.115-14.645-16.474-14.645c-12.349,0-13.265,9.607-13.265,9.607
			v68.621h10.982c0,0-0.916-49.861-0.916-60.845c0-10.979,8.233-4.573,8.233-0.912c0,3.656,1.374,40.716,1.374,50.324
			c0,9.601,7.317,11.433,13.266,11.433c3.326,0,13.381,0,22.873,0c0,15.016,0,25.605,0,27.002c0,5.488,3.203,10.063,8.238,10.063
			s24.244-1.37,29.279-1.37c4.507,0,6.438-8.429,6.793-10.187c5.713,6.938,10.88,13.537,13.084,17.248
			c6.885,11.627,9.938,29.432,5.159,43.382c-4.779,13.95-27.143,27.322-30.391,24.652c-3.248-2.671-7.448-13.757-18.534-8.027
			c-11.082,5.736-1.527,17.583-1.527,17.583s0.38,1.146-13.191-2.68c-13.565-3.821-29.617-25.227-31.531-42.999
			c-1.907-17.768,7.453-16.817,7.453-16.817c-7.261,2.679-5.539,15.864,0.189,19.877c5.737,4.016,23.125-4.779,21.978-19.877
			c-1.143-15.094-30.189-27.518-43.762,1.154c-13.57,28.66,17.772,67.288,58.864,67.288c25.498,0,64.021-25.057,61.546-60.226
			c-1.04-14.665-5.745-27.711-14.916-40.896c-3.591-5.156-9.327-12.399-14.998-19.334l-2.353-70.035
			c2.757,0.857,4.827,2.559,4.827,5.646c0,5.031,0.917,35.681,0.917,44.826c0,9.153,5.026,15.106,11.896,15.106
			c6.859,0,11.896-4.119,11.896-10.984c0-6.862-1.371-31.106-1.371-43.918c0-12.808,2.749-13.27,5.943-13.27
			c3.203,0,9.608,2.744,9.608,8.691s2.286,58.101,2.286,58.101h10.07C335.63,344.223,334.252,308.541,334.252,291.152z
			 M326.013,223.448c-0.23-0.371-0.496-0.644-0.775-0.896C325.724,223.061,326.013,223.448,326.013,223.448z M251.342,332.211
			c0.355-0.145,0.99-0.479,1.595-1.105C252.526,331.643,251.994,332.029,251.342,332.211z M249.559,331.229
			c0.875,0.662,1.279,0.945,1.407,1.037c-0.145,0.021-0.276,0.069-0.434,0.069c-0.207,0-0.545,0-0.958,0.009L249.559,331.229z
			 M270.658,364.354c0,5.031-1.824,6.86-5.031,6.86c-3.199,0-9.149,0.462-12.354,0.462s-3.203-5.488-3.203-5.488l-0.321-21.967
			c2.643,0,4.846,0,6.271,0c4.552,0,6.806-1.773,7.854-4.98c-0.916,3.678-3.467,4.738-3.467,4.738s4.392,4.947,10.12,11.588
			C270.608,360.523,270.658,363.689,270.658,364.354z M263.951,338.943c0.041-0.137,0.063-0.281,0.095-0.418
			c0,0.029-0.009,0.065-0.013,0.1C264.013,338.745,263.979,338.827,263.951,338.943z M264.702,329.596
			c-0.062-10.113-0.45-35.851-0.45-43.016c0-5.196,2.053-6.712,4.903-7.148c0.372,19.868,0.747,40.571,1.032,56.582
			C267.442,332.77,265.416,330.42,264.702,329.596z"/>
		<path fill="#FFCB05" stroke="#995B05" stroke-width="2" stroke-linecap="round" stroke-linejoin="round" d="M179.271,338.047
			v-68.629c0,0,0.917-9.607,13.266-9.607c12.357,0,16.477,7.317,16.477,14.645c0,7.32,0,45.288,0,45.288s0.463,6.864,5.942,6.864
			c5.494,0,29.733-0.455,32.486-0.455c2.745,0,3.661-3.202,3.661-5.95c0-2.745,0.458-47.126,0.458-51.699s1.828-10.06,19.667-10.06
			c17.847,0,18.301,6.855,18.301,16.924c0,10.066,1.378,44.839,1.378,47.583c0,2.741,6.396,7.321,6.396,0
			s-1.823-41.636-1.823-49.412c0-7.774,4.581-13.265,10.979-13.265c6.405,0,11.896,1.369,15.098,1.369
			c3.203,0,9.617,5.943,9.617,23.332c0,17.385,1.361,53.072,1.361,53.072h-10.063c0,0-2.294-52.152-2.294-58.104
			c0-5.943-6.396-8.692-9.607-8.692c-3.195,0-5.937,0.458-5.937,13.271c0,12.807,1.362,37.051,1.362,43.918
			c0,6.859-5.027,10.979-11.896,10.979c-6.859,0-11.888-5.952-11.888-15.098c0-9.15-0.924-39.801-0.924-44.836
			c0-5.03-5.48-6.409-10.517-6.409c-5.027,0-9.608-0.454-9.608,7.321c0,7.779,0.462,37.518,0.462,45.293
			c0,7.785-1.378,12.356-8.7,12.356c-7.316,0-34.769,0-40.716,0s-13.266-1.836-13.266-11.44c0-9.607-1.374-46.662-1.374-50.323
			s-8.234-10.063-8.234,0.92c0,10.975,0.917,60.845,0.917,60.845H179.271L179.271,338.047z"/>
		<path fill="#FFF799" d="M182.721,331.217c0,0,0-49.646,0-58.107s9.593-12.416,15.8-9.592c0,0-12.978-2.824-12.978,11.283
			c0,14.104,0,54.729,0,54.729L182.721,331.217z"/>
		<path fill="#FFF799" d="M254.371,331.217c0,0,0-49.646,0-58.107s9.592-12.416,15.796-9.592c0,0-12.977-2.824-12.977,11.283
			c0,14.104,0,54.729,0,54.729L254.371,331.217z"/>
		<path fill="#FFF799" d="M298.938,331.217c0,0,0-49.646,0-58.107s9.592-12.416,15.799-9.592c0,0-12.977-2.824-12.977,11.283
			c0,14.104,0,54.729,0,54.729L298.938,331.217z"/>
		<path fill="#FFF799" d="M257.137,331.063c0,0.875-0.706,1.586-1.586,1.586h-44.353c-0.875,0-1.584-0.711-1.584-1.586l0,0
			c0-0.875,0.709-1.584,1.584-1.584h44.353C256.431,329.479,257.137,330.188,257.137,331.063L257.137,331.063z"/>
		<path fill="#FFCB05" stroke="#995B05" stroke-width="2" stroke-linecap="round" stroke-linejoin="round" d="M264.826,206.291
			h20.129c0,0,4.573,11.895,14.645,7.775c10.063-4.118,22.419-9.604,27.454-3.202c5.026,6.401,6.859,15.094-2.749,16.014
			c-9.607,0.908-11.895-5.493-10.069-8.238c1.832-2.744,6.404-5.031,8.69-1.374c0,0-3.656-5.027-7.774-3.199
			c-4.119,1.829-12.35,10.983-20.125,10.067c-7.784-0.921-14.645-6.406-16.022-10.979h-4.563l5.026,150.053
			c0,0-1.823,10.524-6.859,10.524c-5.035,0-24.243,1.371-29.283,1.371c-5.031,0-8.233-4.574-8.233-10.063
			c0-5.49,0-153.718,0-153.718l-7.321,0.462c0,0-4.573,11.891-14.183,11.891c-9.608,0-17.384-12.814-23.327-12.353
			c-5.951,0.462-7.321,4.573-7.321,4.573s5.488-4.111,9.146,1.832c3.656,5.947-5.026,9.146-8.691,7.313
			c-3.656-1.828-14.641-11.437-2.29-18.3c12.355-6.86,21.961,7.784,30.198,7.321c8.229-0.458,11.44-9.15,11.44-9.15h21.949
			l2.295,155.093c0,0,0,5.489,3.203,5.489c3.202,0,9.153-0.454,12.349-0.454c3.211,0,5.035-1.833,5.035-6.868
			C267.57,353.141,264.826,206.291,264.826,206.291z"/>
		<path fill="#FFCB05" stroke="#995B05" stroke-width="2" stroke-linecap="round" stroke-linejoin="round" d="M251.193,316.012
			c0,0-12.415-8.787-15.479-12.617c-3.059-3.821-5.158-8.787-4.21-12.803c0.967-4.012,3.442-5.539,3.442-5.539v-3.632
			c0,0-6.488,2.484-8.981,9.938c-2.483,7.453-0.568,16.625,9.181,24.651c9.744,8.027,12.803,10.124,12.803,10.124
			s2.864-0.764,3.244-4.201C251.581,318.496,251.193,316.012,251.193,316.012z"/>
		<path fill="#FFF799" d="M241.494,302.425c0.008,0.619-0.495,1.132-1.11,1.144l0,0c-0.622,0.009-1.135-0.491-1.144-1.114
			l-1.333-90.817c-0.012-0.627,0.491-1.139,1.11-1.144l0,0c0.623-0.012,1.131,0.483,1.14,1.11L241.494,302.425z"/>
		<path fill="#FFF799" d="M272.16,276.179c0-0.124-0.05-0.247-0.083-0.362l-2.047-64.519c-0.024-0.784-0.677-1.392-1.452-1.362
			c-0.776,0.021-1.392,0.673-1.371,1.453l2.2,69.351c0.008,0.16,0.037,0.152,0.078,0.083l1.511,47.889
			c0.018,0.776,0.669,1.388,1.444,1.362c0.78-0.024,1.396-0.674,1.37-1.453L272.16,276.179z"/>
		<path fill="#FFF799" d="M239.633,322.523c0,0,1.192,39.156,2.323,41.414s3.385,4.516,14.107,4.516c10.715,0,15.791,0,15.791,0
			s2.822,2.258-15.229,2.258s-18.613-1.131-18.613-10.719c0-9.596-0.637-37.469-0.637-37.469H239.633z"/>
		<path fill="#FFF799" d="M228.625,295.164c0,0,2.643,12.667,11.086,17.945c8.453,5.283,8.453,6.867,8.453,6.867
			s-10.038-4.226-16.373-11.613C225.455,300.968,228.625,295.164,228.625,295.164z"/>
		<path fill="#FFCB05" stroke="#995B05" stroke-width="2" stroke-linecap="round" stroke-linejoin="round" d="M261.322,323.082
			c0,0,23.318,26.941,32.49,40.125c9.179,13.188,18.845,26.232,19.877,40.902c2.483,35.164-25.416,72.239-66.508,72.239
			c-41.083,0-72.432-50.646-58.859-79.307c13.57-28.668,42.618-16.245,43.766-1.147c1.145,15.099-16.24,23.891-21.978,19.878
			c-5.737-4.017-7.454-17.202-0.194-19.878c0,0-9.355-0.957-7.45,16.814c1.907,17.772,17.964,39.177,31.533,42.999
			c13.566,3.821,13.184,2.675,13.184,2.675s-9.552-11.846,1.53-17.579c11.086-5.731,15.292,5.354,18.536,8.028
			c3.252,2.674,25.605-10.702,30.385-24.652c4.779-13.955,1.733-31.76-5.158-43.383c-6.108-10.322-35.16-42.998-35.16-42.998
			s2.868-1.146,3.628-5.35C261.71,328.245,261.322,323.082,261.322,323.082z"/>
		<path fill="#FFF799" d="M224.201,397.786c0,2.811-2.402,5.081-5.356,5.081c-2.965,0-5.366-2.271-5.366-5.081
			c0-2.8,2.401-5.068,5.366-5.068C221.799,392.718,224.201,394.986,224.201,397.786z"/>
		<path fill="#FFF799" d="M223.338,394.973c0,0-11.278-12.978-23.134-1.697c-11.845,11.289-3.945,72.776,51.909,71.085
			c55.854-1.692,53.594-52.467,52.471-62.059c-1.131-9.584-5.646-31.591-38.929-63.186c0,0,38.359,29.337,43.443,66.568
			c5.068,37.237-31.036,60.929-49.09,62.624c-18.054,1.692-50.771-3.38-62.059-29.901c-11.276-26.515-6.092-55.166,12.415-53.028
			C225.03,387.07,223.338,394.973,223.338,394.973z"/>
		<path fill="#FFF799" d="M257.756,459.853c0,0-16.364-7.338-7.898-12.979c8.461-5.642,17.491,10.719,17.491,10.719
			s-8.47-7.898-9.03-3.954C257.756,457.591,257.756,459.853,257.756,459.853z"/>
		<path fill="#FFF799" d="M204.625,327.795c0.028,0.71-0.339,1.305-0.82,1.325l0,0c-0.487,0.021-0.908-0.537-0.941-1.242
			l-2.488-56.801c-0.028-0.714,0.334-1.304,0.821-1.329l0,0c0.486-0.023,0.903,0.533,0.933,1.243L204.625,327.795z"/>
	</g>
</g>
</svg>
